<?xml version="1.0" encoding="UTF-8"?>
<svg xmlns="http://www.w3.org/2000/svg" xmlns:xlink="http://www.w3.org/1999/xlink" viewBox="0 0 1000 1000" width="1000px" height="1000px">
<g id="surface28630514">
<path style=" stroke:none;fill-rule:nonzero;fill:rgb(100%,100%,100%);fill-opacity:1;" d="M 920 520 C 920 571.546875 910.6875 620.949219 893.652344 666.609375 C 882.328125 659.597656 870.171875 653.820312 857.367188 649.460938 C 872.011719 609.078125 880 565.488281 880 520 C 880 309.921875 710.078125 140 500 140 C 289.921875 140 120 309.921875 120 520 C 120 663.59375 199.609375 788.28125 316.875 852.890625 C 326.5625 858.28125 330.078125 870.46875 324.765625 880.15625 C 319.453125 889.765625 307.265625 893.28125 297.578125 887.96875 C 167.890625 816.484375 80 678.359375 80 520 C 80 288.28125 268.28125 100 500 100 C 731.71875 100 920 288.28125 920 520 Z M 840 520 C 840 562.5625 832.164062 603.3125 817.851562 640.886719 C 811.980469 640.300781 806.023438 640 800 640 C 791.285156 640 782.683594 640.617188 774.238281 641.824219 C 790.796875 604.632812 800 563.421875 800 520 C 800 354.0625 665.9375 220 500 220 C 334.0625 220 200 354.0625 200 520 C 200 633.4375 262.8125 731.796875 355.46875 782.8125 C 365.15625 788.203125 368.671875 800.390625 363.359375 810 C 357.96875 819.6875 345.78125 823.203125 336.171875 817.890625 C 231.09375 760 160 648.203125 160 520 C 160 332.421875 312.421875 180 500 180 C 687.578125 180 840 332.421875 840 520 Z M 760 520 C 760 570.984375 745.273438 618.605469 719.828125 658.800781 C 699.636719 668.886719 681.382812 682.804688 666 700 C 664 700 662 700 660 700 C 640.148438 700 621.167969 704.957031 604.402344 713.753906 C 604.894531 713.421875 605.40625 713.105469 605.9375 712.8125 C 673.90625 675.3125 720 603.203125 720 520 C 720 398.28125 621.71875 300 500 300 C 378.28125 300 280 398.28125 280 520 C 280 603.203125 326.09375 675.3125 394.0625 712.8125 C 403.671875 718.125 407.1875 730.3125 401.875 740 C 396.5625 749.609375 384.375 753.125 374.6875 747.8125 C 294.375 703.515625 240 617.96875 240 520 C 240 376.640625 356.640625 260 500 260 C 643.359375 260 760 376.640625 760 520 Z M 680 520 C 680 587.8125 642.34375 647.03125 586.796875 677.734375 C 580.46875 681.25 572.8125 681.171875 566.640625 677.421875 C 560.46875 673.75 556.71875 667.03125 556.875 659.84375 C 557.109375 652.578125 561.09375 646.09375 567.5 642.65625 C 610.703125 618.828125 640 572.96875 640 520 C 640 442.421875 577.578125 380 500 380 C 422.421875 380 360 442.421875 360 520 C 360 572.96875 389.296875 618.828125 432.5 642.65625 C 438.90625 646.09375 442.890625 652.578125 443.125 659.84375 C 443.28125 667.03125 439.53125 673.75 433.359375 677.421875 C 427.1875 681.171875 419.53125 681.25 413.203125 677.734375 C 357.65625 647.03125 320 587.8125 320 520 C 320 420.859375 400.859375 340 500 340 C 599.140625 340 680 420.859375 680 520 Z M 600 520 C 600 557.65625 578.75 590.390625 548.046875 607.265625 C 538.359375 612.65625 526.171875 609.140625 520.859375 599.453125 C 515.546875 589.765625 519.0625 577.578125 528.75 572.265625 C 547.34375 561.953125 560 542.734375 560 520 C 560 486.640625 533.359375 460 500 460 C 466.640625 460 440 486.640625 440 520 C 440 542.734375 452.65625 561.953125 471.25 572.265625 C 480.9375 577.578125 484.453125 589.765625 479.140625 599.453125 C 473.828125 609.140625 461.640625 612.65625 451.953125 607.265625 C 421.25 590.390625 400 557.65625 400 520 C 400 465 445 420 500 420 C 555 420 600 465 600 520 Z M 520 520 C 520 531.015625 511.015625 540 500 540 C 488.984375 540 480 531.015625 480 520 C 480 508.984375 488.984375 500 500 500 C 511.015625 500 520 508.984375 520 520 Z M 520 520 "/>
<path style=" stroke:none;fill-rule:nonzero;fill:rgb(100%,100%,100%);fill-opacity:1;" d="M 910 1000 L 620 1000 C 564 1000 520 956 520 900 C 520 860 544 824 580 808 C 586 770 620 740 660 740 C 668 740 676 742 682 744 C 708 704 752 680 800 680 C 878 680 940 742 940 820 C 940 822 940 824 940 826 C 976 838 1000 872 1000 910 C 1000 960 960 1000 910 1000 Z M 620 820 L 620 838 L 606 842 C 578 848 560 872 560 900 C 560 934 586 960 620 960 L 910 960 C 938 960 960 938 960 910 C 960 884 940 864 916 860 L 896 858 L 900 838 C 900 832 900 826 900 820 C 900 764 856 720 800 720 C 762 720 726 742 710 778 L 700 798 L 680 786 C 674 782 668 780 660 780 C 638 780 620 798 620 820 Z M 620 820 "/>
</g>
</svg>
